<mxfile host="app.diagrams.net" agent="Mozilla/5.0 (X11; Linux x86_64; rv:136.0) Gecko/20100101 Firefox/136.0" version="26.1.1">
  <diagram name="Page-1" id="aViHZRAjCR8G5Z_eq428">
    <mxGraphModel dx="1615" dy="1962" grid="1" gridSize="10" guides="1" tooltips="1" connect="1" arrows="1" fold="1" page="1" pageScale="1" pageWidth="850" pageHeight="1100" math="0" shadow="0">
      <root>
        <mxCell id="0" />
        <mxCell id="1" parent="0" />
        <mxCell id="vArqeYYx8bBDrKzNLqZD-5" value="" style="edgeStyle=orthogonalEdgeStyle;rounded=0;orthogonalLoop=1;jettySize=auto;html=1;endArrow=none;startFill=0;" edge="1" parent="1" source="vArqeYYx8bBDrKzNLqZD-1" target="vArqeYYx8bBDrKzNLqZD-4">
          <mxGeometry relative="1" as="geometry" />
        </mxCell>
        <mxCell id="vArqeYYx8bBDrKzNLqZD-10" value="" style="edgeStyle=orthogonalEdgeStyle;rounded=0;orthogonalLoop=1;jettySize=auto;html=1;endArrow=none;startFill=0;" edge="1" parent="1" source="vArqeYYx8bBDrKzNLqZD-1" target="vArqeYYx8bBDrKzNLqZD-9">
          <mxGeometry relative="1" as="geometry" />
        </mxCell>
        <mxCell id="vArqeYYx8bBDrKzNLqZD-20" value="" style="edgeStyle=orthogonalEdgeStyle;rounded=0;orthogonalLoop=1;jettySize=auto;html=1;endArrow=none;startFill=0;" edge="1" parent="1" source="vArqeYYx8bBDrKzNLqZD-1" target="vArqeYYx8bBDrKzNLqZD-19">
          <mxGeometry relative="1" as="geometry" />
        </mxCell>
        <mxCell id="vArqeYYx8bBDrKzNLqZD-1" value="Regata" style="rounded=0;whiteSpace=wrap;html=1;" vertex="1" parent="1">
          <mxGeometry x="40" y="240" width="120" height="80" as="geometry" />
        </mxCell>
        <mxCell id="vArqeYYx8bBDrKzNLqZD-7" value="" style="edgeStyle=orthogonalEdgeStyle;rounded=0;orthogonalLoop=1;jettySize=auto;html=1;endArrow=none;startFill=0;" edge="1" parent="1" source="vArqeYYx8bBDrKzNLqZD-4" target="vArqeYYx8bBDrKzNLqZD-6">
          <mxGeometry relative="1" as="geometry" />
        </mxCell>
        <mxCell id="vArqeYYx8bBDrKzNLqZD-4" value="Categorizazzione" style="rhombus;whiteSpace=wrap;html=1;rounded=0;" vertex="1" parent="1">
          <mxGeometry x="35" y="80" width="130" height="80" as="geometry" />
        </mxCell>
        <mxCell id="vArqeYYx8bBDrKzNLqZD-6" value="&lt;div&gt;Tipologia&lt;/div&gt;" style="whiteSpace=wrap;html=1;rounded=0;" vertex="1" parent="1">
          <mxGeometry x="40" y="-80" width="120" height="80" as="geometry" />
        </mxCell>
        <mxCell id="vArqeYYx8bBDrKzNLqZD-12" value="" style="edgeStyle=orthogonalEdgeStyle;rounded=0;orthogonalLoop=1;jettySize=auto;html=1;endArrow=none;startFill=0;" edge="1" parent="1" source="vArqeYYx8bBDrKzNLqZD-9" target="vArqeYYx8bBDrKzNLqZD-11">
          <mxGeometry relative="1" as="geometry" />
        </mxCell>
        <mxCell id="vArqeYYx8bBDrKzNLqZD-9" value="Localizzazione" style="rhombus;whiteSpace=wrap;html=1;rounded=0;" vertex="1" parent="1">
          <mxGeometry x="45" y="400" width="110" height="80" as="geometry" />
        </mxCell>
        <mxCell id="vArqeYYx8bBDrKzNLqZD-16" value="" style="edgeStyle=orthogonalEdgeStyle;rounded=0;orthogonalLoop=1;jettySize=auto;html=1;endArrow=none;startFill=0;" edge="1" parent="1" source="vArqeYYx8bBDrKzNLqZD-11" target="vArqeYYx8bBDrKzNLqZD-15">
          <mxGeometry relative="1" as="geometry" />
        </mxCell>
        <mxCell id="vArqeYYx8bBDrKzNLqZD-11" value="Luogo" style="whiteSpace=wrap;html=1;rounded=0;" vertex="1" parent="1">
          <mxGeometry x="40" y="560" width="120" height="80" as="geometry" />
        </mxCell>
        <mxCell id="vArqeYYx8bBDrKzNLqZD-18" value="" style="edgeStyle=orthogonalEdgeStyle;rounded=0;orthogonalLoop=1;jettySize=auto;html=1;endArrow=none;startFill=0;" edge="1" parent="1" source="vArqeYYx8bBDrKzNLqZD-15" target="vArqeYYx8bBDrKzNLqZD-17">
          <mxGeometry relative="1" as="geometry" />
        </mxCell>
        <mxCell id="vArqeYYx8bBDrKzNLqZD-15" value="Relazione" style="rhombus;whiteSpace=wrap;html=1;rounded=0;" vertex="1" parent="1">
          <mxGeometry x="45" y="720" width="110" height="80" as="geometry" />
        </mxCell>
        <mxCell id="vArqeYYx8bBDrKzNLqZD-17" value="Nazione" style="whiteSpace=wrap;html=1;rounded=0;" vertex="1" parent="1">
          <mxGeometry x="40" y="880" width="120" height="80" as="geometry" />
        </mxCell>
        <mxCell id="vArqeYYx8bBDrKzNLqZD-19" value="Partecipazione" style="rhombus;whiteSpace=wrap;html=1;rounded=0;" vertex="1" parent="1">
          <mxGeometry x="340" y="240" width="120" height="80" as="geometry" />
        </mxCell>
        <mxCell id="vArqeYYx8bBDrKzNLqZD-85" style="edgeStyle=orthogonalEdgeStyle;rounded=0;orthogonalLoop=1;jettySize=auto;html=1;entryX=0.5;entryY=0;entryDx=0;entryDy=0;endArrow=none;startFill=0;" edge="1" parent="1" source="vArqeYYx8bBDrKzNLqZD-21" target="vArqeYYx8bBDrKzNLqZD-19">
          <mxGeometry relative="1" as="geometry" />
        </mxCell>
        <mxCell id="vArqeYYx8bBDrKzNLqZD-21" value="Barca" style="whiteSpace=wrap;html=1;rounded=0;" vertex="1" parent="1">
          <mxGeometry x="340" y="20" width="120" height="80" as="geometry" />
        </mxCell>
        <mxCell id="vArqeYYx8bBDrKzNLqZD-26" value="" style="edgeStyle=orthogonalEdgeStyle;rounded=0;orthogonalLoop=1;jettySize=auto;html=1;endArrow=none;startFill=0;exitX=1;exitY=0.5;exitDx=0;exitDy=0;" edge="1" parent="1" source="vArqeYYx8bBDrKzNLqZD-19" target="vArqeYYx8bBDrKzNLqZD-25">
          <mxGeometry relative="1" as="geometry">
            <mxPoint x="680" y="280" as="sourcePoint" />
          </mxGeometry>
        </mxCell>
        <mxCell id="vArqeYYx8bBDrKzNLqZD-28" value="" style="edgeStyle=orthogonalEdgeStyle;rounded=0;orthogonalLoop=1;jettySize=auto;html=1;endArrow=none;startFill=0;" edge="1" parent="1" source="vArqeYYx8bBDrKzNLqZD-25" target="vArqeYYx8bBDrKzNLqZD-27">
          <mxGeometry relative="1" as="geometry" />
        </mxCell>
        <mxCell id="vArqeYYx8bBDrKzNLqZD-25" value="Velista" style="whiteSpace=wrap;html=1;rounded=0;" vertex="1" parent="1">
          <mxGeometry x="640" y="240" width="120" height="80" as="geometry" />
        </mxCell>
        <mxCell id="vArqeYYx8bBDrKzNLqZD-30" value="" style="edgeStyle=orthogonalEdgeStyle;rounded=0;orthogonalLoop=1;jettySize=auto;html=1;endArrow=none;startFill=0;" edge="1" parent="1" source="vArqeYYx8bBDrKzNLqZD-27" target="vArqeYYx8bBDrKzNLqZD-29">
          <mxGeometry relative="1" as="geometry" />
        </mxCell>
        <mxCell id="vArqeYYx8bBDrKzNLqZD-27" value="Ricopre" style="rhombus;whiteSpace=wrap;html=1;rounded=0;" vertex="1" parent="1">
          <mxGeometry x="660" y="80" width="80" height="80" as="geometry" />
        </mxCell>
        <mxCell id="vArqeYYx8bBDrKzNLqZD-29" value="Ruolo" style="whiteSpace=wrap;html=1;rounded=0;" vertex="1" parent="1">
          <mxGeometry x="640" y="-80" width="120" height="80" as="geometry" />
        </mxCell>
        <mxCell id="vArqeYYx8bBDrKzNLqZD-31" value="" style="endArrow=oval;html=1;rounded=0;endFill=1;" edge="1" parent="1">
          <mxGeometry width="50" height="50" relative="1" as="geometry">
            <mxPoint x="40" y="240" as="sourcePoint" />
            <mxPoint x="40" y="220" as="targetPoint" />
          </mxGeometry>
        </mxCell>
        <mxCell id="vArqeYYx8bBDrKzNLqZD-32" value="Denominazione" style="edgeLabel;html=1;align=center;verticalAlign=middle;resizable=0;points=[];" vertex="1" connectable="0" parent="vArqeYYx8bBDrKzNLqZD-31">
          <mxGeometry x="1" y="-3" relative="1" as="geometry">
            <mxPoint x="-3" y="-12" as="offset" />
          </mxGeometry>
        </mxCell>
        <mxCell id="vArqeYYx8bBDrKzNLqZD-33" value="" style="endArrow=none;html=1;rounded=0;endFill=0;startFill=0;startArrow=oval;" edge="1" parent="1">
          <mxGeometry width="50" height="50" relative="1" as="geometry">
            <mxPoint x="20" y="240" as="sourcePoint" />
            <mxPoint x="40" y="240" as="targetPoint" />
          </mxGeometry>
        </mxCell>
        <mxCell id="vArqeYYx8bBDrKzNLqZD-35" value="Miglia" style="edgeLabel;html=1;align=center;verticalAlign=middle;resizable=0;points=[];" vertex="1" connectable="0" parent="vArqeYYx8bBDrKzNLqZD-33">
          <mxGeometry x="0.1115" y="-1" relative="1" as="geometry">
            <mxPoint x="-31" y="-1" as="offset" />
          </mxGeometry>
        </mxCell>
        <mxCell id="vArqeYYx8bBDrKzNLqZD-38" value="" style="endArrow=oval;html=1;rounded=0;endFill=1;" edge="1" parent="1">
          <mxGeometry width="50" height="50" relative="1" as="geometry">
            <mxPoint x="40" y="-79.99999999999999" as="sourcePoint" />
            <mxPoint x="40" y="-99.99999999999999" as="targetPoint" />
          </mxGeometry>
        </mxCell>
        <mxCell id="vArqeYYx8bBDrKzNLqZD-39" value="Id" style="edgeLabel;html=1;align=center;verticalAlign=middle;resizable=0;points=[];" vertex="1" connectable="0" parent="vArqeYYx8bBDrKzNLqZD-38">
          <mxGeometry x="1" y="-3" relative="1" as="geometry">
            <mxPoint x="-3" y="-12" as="offset" />
          </mxGeometry>
        </mxCell>
        <mxCell id="vArqeYYx8bBDrKzNLqZD-40" value="" style="endArrow=none;html=1;rounded=0;endFill=0;startFill=0;startArrow=oval;" edge="1" parent="1">
          <mxGeometry width="50" height="50" relative="1" as="geometry">
            <mxPoint x="20" y="-69.99999999999999" as="sourcePoint" />
            <mxPoint x="40" y="-69.99999999999999" as="targetPoint" />
          </mxGeometry>
        </mxCell>
        <mxCell id="vArqeYYx8bBDrKzNLqZD-41" value="Nome" style="edgeLabel;html=1;align=center;verticalAlign=middle;resizable=0;points=[];" vertex="1" connectable="0" parent="vArqeYYx8bBDrKzNLqZD-40">
          <mxGeometry x="0.1115" y="-1" relative="1" as="geometry">
            <mxPoint x="-31" y="-1" as="offset" />
          </mxGeometry>
        </mxCell>
        <mxCell id="vArqeYYx8bBDrKzNLqZD-45" value="" style="endArrow=oval;html=1;rounded=0;endFill=1;" edge="1" parent="1">
          <mxGeometry width="50" height="50" relative="1" as="geometry">
            <mxPoint x="40" y="560" as="sourcePoint" />
            <mxPoint x="40" y="540" as="targetPoint" />
          </mxGeometry>
        </mxCell>
        <mxCell id="vArqeYYx8bBDrKzNLqZD-46" value="Id" style="edgeLabel;html=1;align=center;verticalAlign=middle;resizable=0;points=[];" vertex="1" connectable="0" parent="vArqeYYx8bBDrKzNLqZD-45">
          <mxGeometry x="-0.0952" y="-2" relative="1" as="geometry">
            <mxPoint x="-2" y="-21" as="offset" />
          </mxGeometry>
        </mxCell>
        <mxCell id="vArqeYYx8bBDrKzNLqZD-47" value="" style="endArrow=oval;html=1;rounded=0;endFill=0;" edge="1" parent="1">
          <mxGeometry width="50" height="50" relative="1" as="geometry">
            <mxPoint x="70" y="560" as="sourcePoint" />
            <mxPoint x="70" y="540" as="targetPoint" />
          </mxGeometry>
        </mxCell>
        <mxCell id="vArqeYYx8bBDrKzNLqZD-48" value="Nome" style="edgeLabel;html=1;align=center;verticalAlign=middle;resizable=0;points=[];" vertex="1" connectable="0" parent="vArqeYYx8bBDrKzNLqZD-47">
          <mxGeometry x="-0.0952" y="-2" relative="1" as="geometry">
            <mxPoint x="-2" y="-23" as="offset" />
          </mxGeometry>
        </mxCell>
        <mxCell id="vArqeYYx8bBDrKzNLqZD-49" value="" style="endArrow=oval;html=1;rounded=0;endFill=1;" edge="1" parent="1">
          <mxGeometry width="50" height="50" relative="1" as="geometry">
            <mxPoint x="40" y="880" as="sourcePoint" />
            <mxPoint x="40" y="860" as="targetPoint" />
          </mxGeometry>
        </mxCell>
        <mxCell id="vArqeYYx8bBDrKzNLqZD-50" value="Id" style="edgeLabel;html=1;align=center;verticalAlign=middle;resizable=0;points=[];" vertex="1" connectable="0" parent="vArqeYYx8bBDrKzNLqZD-49">
          <mxGeometry x="-0.0952" y="-2" relative="1" as="geometry">
            <mxPoint x="-2" y="-21" as="offset" />
          </mxGeometry>
        </mxCell>
        <mxCell id="vArqeYYx8bBDrKzNLqZD-51" value="" style="endArrow=oval;html=1;rounded=0;endFill=0;" edge="1" parent="1">
          <mxGeometry width="50" height="50" relative="1" as="geometry">
            <mxPoint x="70" y="880" as="sourcePoint" />
            <mxPoint x="70" y="860" as="targetPoint" />
          </mxGeometry>
        </mxCell>
        <mxCell id="vArqeYYx8bBDrKzNLqZD-52" value="Nome" style="edgeLabel;html=1;align=center;verticalAlign=middle;resizable=0;points=[];" vertex="1" connectable="0" parent="vArqeYYx8bBDrKzNLqZD-51">
          <mxGeometry x="-0.0952" y="-2" relative="1" as="geometry">
            <mxPoint x="-2" y="-23" as="offset" />
          </mxGeometry>
        </mxCell>
        <mxCell id="vArqeYYx8bBDrKzNLqZD-53" value="" style="endArrow=oval;html=1;rounded=0;endFill=1;" edge="1" parent="1">
          <mxGeometry width="50" height="50" relative="1" as="geometry">
            <mxPoint x="370" y="20" as="sourcePoint" />
            <mxPoint x="370" as="targetPoint" />
          </mxGeometry>
        </mxCell>
        <mxCell id="vArqeYYx8bBDrKzNLqZD-54" value="Nome" style="edgeLabel;html=1;align=center;verticalAlign=middle;resizable=0;points=[];" vertex="1" connectable="0" parent="vArqeYYx8bBDrKzNLqZD-53">
          <mxGeometry x="0.45" y="1" relative="1" as="geometry">
            <mxPoint x="1" y="-18" as="offset" />
          </mxGeometry>
        </mxCell>
        <mxCell id="vArqeYYx8bBDrKzNLqZD-55" value="" style="endArrow=oval;html=1;rounded=0;endFill=0;" edge="1" parent="1">
          <mxGeometry width="50" height="50" relative="1" as="geometry">
            <mxPoint x="404" y="20" as="sourcePoint" />
            <mxPoint x="404" as="targetPoint" />
          </mxGeometry>
        </mxCell>
        <mxCell id="vArqeYYx8bBDrKzNLqZD-56" value="Classe" style="edgeLabel;html=1;align=center;verticalAlign=middle;resizable=0;points=[];" vertex="1" connectable="0" parent="vArqeYYx8bBDrKzNLqZD-55">
          <mxGeometry x="0.2" relative="1" as="geometry">
            <mxPoint x="1" y="-20" as="offset" />
          </mxGeometry>
        </mxCell>
        <mxCell id="vArqeYYx8bBDrKzNLqZD-57" value="" style="endArrow=oval;html=1;rounded=0;endFill=0;" edge="1" parent="1">
          <mxGeometry width="50" height="50" relative="1" as="geometry">
            <mxPoint x="450" y="20" as="sourcePoint" />
            <mxPoint x="450" as="targetPoint" />
          </mxGeometry>
        </mxCell>
        <mxCell id="vArqeYYx8bBDrKzNLqZD-58" value="PesoMax" style="edgeLabel;html=1;align=center;verticalAlign=middle;resizable=0;points=[];" vertex="1" connectable="0" parent="vArqeYYx8bBDrKzNLqZD-57">
          <mxGeometry x="0.2" relative="1" as="geometry">
            <mxPoint x="1" y="-20" as="offset" />
          </mxGeometry>
        </mxCell>
        <mxCell id="vArqeYYx8bBDrKzNLqZD-59" value="" style="endArrow=oval;html=1;rounded=0;endFill=1;" edge="1" parent="1">
          <mxGeometry width="50" height="50" relative="1" as="geometry">
            <mxPoint x="640" y="240" as="sourcePoint" />
            <mxPoint x="640" y="220" as="targetPoint" />
          </mxGeometry>
        </mxCell>
        <mxCell id="vArqeYYx8bBDrKzNLqZD-60" value="Id" style="edgeLabel;html=1;align=center;verticalAlign=middle;resizable=0;points=[];" vertex="1" connectable="0" parent="vArqeYYx8bBDrKzNLqZD-59">
          <mxGeometry x="0.029" y="-1" relative="1" as="geometry">
            <mxPoint x="-1" y="-22" as="offset" />
          </mxGeometry>
        </mxCell>
        <mxCell id="vArqeYYx8bBDrKzNLqZD-61" value="" style="endArrow=oval;html=1;rounded=0;endFill=0;" edge="1" parent="1">
          <mxGeometry width="50" height="50" relative="1" as="geometry">
            <mxPoint x="670" y="240" as="sourcePoint" />
            <mxPoint x="670" y="220" as="targetPoint" />
          </mxGeometry>
        </mxCell>
        <mxCell id="vArqeYYx8bBDrKzNLqZD-62" value="Nome" style="edgeLabel;html=1;align=center;verticalAlign=middle;resizable=0;points=[];" vertex="1" connectable="0" parent="vArqeYYx8bBDrKzNLqZD-61">
          <mxGeometry x="0.2" relative="1" as="geometry">
            <mxPoint x="1" y="-20" as="offset" />
          </mxGeometry>
        </mxCell>
        <mxCell id="vArqeYYx8bBDrKzNLqZD-63" value="" style="endArrow=oval;html=1;rounded=0;endFill=0;" edge="1" parent="1">
          <mxGeometry width="50" height="50" relative="1" as="geometry">
            <mxPoint x="759.57" y="240" as="sourcePoint" />
            <mxPoint x="759.57" y="220" as="targetPoint" />
          </mxGeometry>
        </mxCell>
        <mxCell id="vArqeYYx8bBDrKzNLqZD-64" value="Cognome" style="edgeLabel;html=1;align=center;verticalAlign=middle;resizable=0;points=[];" vertex="1" connectable="0" parent="vArqeYYx8bBDrKzNLqZD-63">
          <mxGeometry x="0.2" relative="1" as="geometry">
            <mxPoint x="6" y="-20" as="offset" />
          </mxGeometry>
        </mxCell>
        <mxCell id="vArqeYYx8bBDrKzNLqZD-65" value="" style="endArrow=oval;html=1;rounded=0;endFill=0;" edge="1" parent="1">
          <mxGeometry width="50" height="50" relative="1" as="geometry">
            <mxPoint x="759.76" y="240" as="sourcePoint" />
            <mxPoint x="780" y="240" as="targetPoint" />
          </mxGeometry>
        </mxCell>
        <mxCell id="vArqeYYx8bBDrKzNLqZD-66" value="DataN" style="edgeLabel;html=1;align=center;verticalAlign=middle;resizable=0;points=[];" vertex="1" connectable="0" parent="vArqeYYx8bBDrKzNLqZD-65">
          <mxGeometry x="0.2" relative="1" as="geometry">
            <mxPoint x="28" as="offset" />
          </mxGeometry>
        </mxCell>
        <mxCell id="vArqeYYx8bBDrKzNLqZD-70" value="" style="endArrow=oval;html=1;rounded=0;endFill=1;" edge="1" parent="1">
          <mxGeometry width="50" height="50" relative="1" as="geometry">
            <mxPoint x="640" y="-80" as="sourcePoint" />
            <mxPoint x="640" y="-100" as="targetPoint" />
          </mxGeometry>
        </mxCell>
        <mxCell id="vArqeYYx8bBDrKzNLqZD-71" value="Id" style="edgeLabel;html=1;align=center;verticalAlign=middle;resizable=0;points=[];" vertex="1" connectable="0" parent="vArqeYYx8bBDrKzNLqZD-70">
          <mxGeometry x="0.029" y="-1" relative="1" as="geometry">
            <mxPoint x="-1" y="-22" as="offset" />
          </mxGeometry>
        </mxCell>
        <mxCell id="vArqeYYx8bBDrKzNLqZD-72" value="" style="endArrow=oval;html=1;rounded=0;endFill=0;" edge="1" parent="1">
          <mxGeometry width="50" height="50" relative="1" as="geometry">
            <mxPoint x="670" y="-80" as="sourcePoint" />
            <mxPoint x="670" y="-100" as="targetPoint" />
          </mxGeometry>
        </mxCell>
        <mxCell id="vArqeYYx8bBDrKzNLqZD-73" value="Nome" style="edgeLabel;html=1;align=center;verticalAlign=middle;resizable=0;points=[];" vertex="1" connectable="0" parent="vArqeYYx8bBDrKzNLqZD-72">
          <mxGeometry x="0.2" relative="1" as="geometry">
            <mxPoint x="1" y="-20" as="offset" />
          </mxGeometry>
        </mxCell>
        <mxCell id="vArqeYYx8bBDrKzNLqZD-78" value="(1, N)" style="text;html=1;align=center;verticalAlign=middle;whiteSpace=wrap;rounded=0;" vertex="1" parent="1">
          <mxGeometry x="640" width="60" height="30" as="geometry" />
        </mxCell>
        <mxCell id="vArqeYYx8bBDrKzNLqZD-79" value="(1, N)" style="text;html=1;align=center;verticalAlign=middle;whiteSpace=wrap;rounded=0;" vertex="1" parent="1">
          <mxGeometry x="690" y="210" width="60" height="30" as="geometry" />
        </mxCell>
        <mxCell id="vArqeYYx8bBDrKzNLqZD-80" value="(0, N)" style="text;html=1;align=center;verticalAlign=middle;whiteSpace=wrap;rounded=0;" vertex="1" parent="1">
          <mxGeometry x="580" y="280" width="60" height="30" as="geometry" />
        </mxCell>
        <mxCell id="vArqeYYx8bBDrKzNLqZD-83" value="(1, N)" style="text;html=1;align=center;verticalAlign=middle;whiteSpace=wrap;rounded=0;" vertex="1" parent="1">
          <mxGeometry x="160" y="280" width="60" height="30" as="geometry" />
        </mxCell>
        <mxCell id="vArqeYYx8bBDrKzNLqZD-86" value="(1, N)" style="text;html=1;align=center;verticalAlign=middle;whiteSpace=wrap;rounded=0;" vertex="1" parent="1">
          <mxGeometry x="400" y="100" width="60" height="30" as="geometry" />
        </mxCell>
        <mxCell id="vArqeYYx8bBDrKzNLqZD-87" value="(1, N)" style="text;html=1;align=center;verticalAlign=middle;whiteSpace=wrap;rounded=0;" vertex="1" parent="1">
          <mxGeometry x="100" width="60" height="30" as="geometry" />
        </mxCell>
        <mxCell id="vArqeYYx8bBDrKzNLqZD-88" value="(1, 1)" style="text;html=1;align=center;verticalAlign=middle;whiteSpace=wrap;rounded=0;" vertex="1" parent="1">
          <mxGeometry x="100" y="210" width="60" height="30" as="geometry" />
        </mxCell>
        <mxCell id="vArqeYYx8bBDrKzNLqZD-89" value="(1, 1)" style="text;html=1;align=center;verticalAlign=middle;whiteSpace=wrap;rounded=0;" vertex="1" parent="1">
          <mxGeometry x="100" y="320" width="60" height="30" as="geometry" />
        </mxCell>
        <mxCell id="vArqeYYx8bBDrKzNLqZD-90" value="(1, N)" style="text;html=1;align=center;verticalAlign=middle;whiteSpace=wrap;rounded=0;" vertex="1" parent="1">
          <mxGeometry x="100" y="530" width="60" height="30" as="geometry" />
        </mxCell>
        <mxCell id="vArqeYYx8bBDrKzNLqZD-91" value="(1, N)" style="text;html=1;align=center;verticalAlign=middle;whiteSpace=wrap;rounded=0;" vertex="1" parent="1">
          <mxGeometry x="100" y="850" width="60" height="30" as="geometry" />
        </mxCell>
        <mxCell id="vArqeYYx8bBDrKzNLqZD-92" value="(1, 1)" style="text;html=1;align=center;verticalAlign=middle;whiteSpace=wrap;rounded=0;" vertex="1" parent="1">
          <mxGeometry x="100" y="640" width="60" height="30" as="geometry" />
        </mxCell>
        <mxCell id="vArqeYYx8bBDrKzNLqZD-94" value="" style="endArrow=none;html=1;rounded=0;endFill=0;startFill=0;startArrow=oval;entryX=0;entryY=0.25;entryDx=0;entryDy=0;" edge="1" parent="1">
          <mxGeometry width="50" height="50" relative="1" as="geometry">
            <mxPoint x="350" y="260" as="sourcePoint" />
            <mxPoint x="370" y="260" as="targetPoint" />
          </mxGeometry>
        </mxCell>
        <mxCell id="vArqeYYx8bBDrKzNLqZD-95" value="Data" style="edgeLabel;html=1;align=center;verticalAlign=middle;resizable=0;points=[];" vertex="1" connectable="0" parent="vArqeYYx8bBDrKzNLqZD-94">
          <mxGeometry x="0.1115" y="-1" relative="1" as="geometry">
            <mxPoint x="-31" y="-1" as="offset" />
          </mxGeometry>
        </mxCell>
        <mxCell id="vArqeYYx8bBDrKzNLqZD-96" value="" style="endArrow=oval;html=1;rounded=0;endFill=0;" edge="1" parent="1">
          <mxGeometry width="50" height="50" relative="1" as="geometry">
            <mxPoint x="760" y="260" as="sourcePoint" />
            <mxPoint x="780.24" y="260" as="targetPoint" />
          </mxGeometry>
        </mxCell>
        <mxCell id="vArqeYYx8bBDrKzNLqZD-97" value="Peso" style="edgeLabel;html=1;align=center;verticalAlign=middle;resizable=0;points=[];" vertex="1" connectable="0" parent="vArqeYYx8bBDrKzNLqZD-96">
          <mxGeometry x="0.2" relative="1" as="geometry">
            <mxPoint x="28" as="offset" />
          </mxGeometry>
        </mxCell>
      </root>
    </mxGraphModel>
  </diagram>
</mxfile>
